<?xml version="1.0" encoding="utf-8"?>
<!-- Generator: Adobe Illustrator 16.0.0, SVG Export Plug-In . SVG Version: 6.00 Build 0)  -->
<!DOCTYPE svg PUBLIC "-//W3C//DTD SVG 1.1//EN" "http://www.w3.org/Graphics/SVG/1.1/DTD/svg11.dtd">
<svg version="1.1" id="Layer_1" xmlns="http://www.w3.org/2000/svg" xmlns:xlink="http://www.w3.org/1999/xlink" x="0px" y="0px"
	 width="32px" height="32px" viewBox="0 0 32 32" enable-background="new 0 0 32 32" xml:space="preserve">
<g>
	<path d="M23.17,0H8.831C3.961,0,0,3.961,0,8.83v14.339C0,28.038,3.961,32,8.831,32H23.17c4.869,0,8.83-3.962,8.83-8.831V8.83
		C32,3.961,28.039,0,23.17,0z M29.16,23.169c0,3.304-2.688,5.991-5.99,5.991H8.831c-3.304,0-5.991-2.688-5.991-5.991V8.83
		c0-3.303,2.688-5.991,5.991-5.991H23.17c3.303,0,5.99,2.688,5.99,5.991V23.169L29.16,23.169z"/>
	<path d="M16,7.755c-4.547,0-8.246,3.698-8.246,8.245s3.699,8.245,8.246,8.245c4.546,0,8.246-3.698,8.246-8.245
		S20.547,7.755,16,7.755z M16,21.405c-2.981,0-5.407-2.424-5.407-5.405s2.425-5.406,5.407-5.406c2.98,0,5.406,2.425,5.406,5.406
		S18.98,21.405,16,21.405z"/>
	<path d="M24.592,5.347c-0.547,0-1.084,0.222-1.471,0.609C22.732,6.343,22.51,6.88,22.51,7.429c0,0.548,0.223,1.085,0.611,1.473
		c0.385,0.387,0.924,0.61,1.471,0.61c0.549,0,1.084-0.224,1.473-0.61c0.387-0.388,0.609-0.925,0.609-1.473
		c0-0.549-0.223-1.086-0.609-1.473C25.678,5.568,25.141,5.347,24.592,5.347z"/>
</g>
</svg>
