<?xml version="1.0" encoding="utf-8"?>
<!-- Generator: Adobe Illustrator 16.0.0, SVG Export Plug-In . SVG Version: 6.00 Build 0)  -->
<!DOCTYPE svg PUBLIC "-//W3C//DTD SVG 1.1//EN" "http://www.w3.org/Graphics/SVG/1.1/DTD/svg11.dtd">
<svg version="1.1" id="Layer_1" xmlns="http://www.w3.org/2000/svg" xmlns:xlink="http://www.w3.org/1999/xlink" x="0px" y="0px"
	 width="32px" height="32px" viewBox="0 0 32 32" enable-background="new 0 0 32 32" xml:space="preserve">
<g>
	<path d="M16.545,23.559l-3.695,3.694c-0.923,0.926-2.142,1.429-3.443,1.429c-1.302,0-2.521-0.503-3.444-1.429l-1.176-1.177
		c-0.924-0.922-1.428-2.14-1.428-3.442c0-1.302,0.504-2.52,1.428-3.442l4.913-4.913c1.89-1.89,4.997-1.89,6.887,0l1.764,1.764
		c0.672,0.671,1.721,0.671,2.393,0c0.674-0.672,0.674-1.723,0-2.395l-1.762-1.764c-3.192-3.191-8.441-3.191-11.633,0l-4.955,4.914
		C0.841,18.353,0,20.409,0,22.634c0,2.226,0.841,4.242,2.395,5.796l1.175,1.177C5.123,31.158,7.181,32,9.365,32
		c2.184,0,4.241-0.842,5.795-2.394l3.695-3.696c0.672-0.673,0.672-1.722,0-2.394C18.268,22.886,17.217,22.886,16.545,23.559z"/>
	<path d="M28.43,2.394C26.877,0.84,24.818,0,22.635,0s-4.242,0.84-5.795,2.394l-3.107,3.107c-0.672,0.672-0.672,1.722,0,2.394
		s1.722,0.672,2.395,0l3.108-3.107c0.924-0.924,2.143-1.428,3.441-1.428c1.303,0,2.521,0.504,3.445,1.428l1.176,1.176
		c0.924,0.924,1.428,2.142,1.428,3.443s-0.504,2.52-1.428,3.443l-4.324,4.283c-0.926,0.925-2.145,1.428-3.445,1.428
		s-2.518-0.503-3.444-1.428L14.32,15.37c-0.672-0.673-1.721-0.673-2.393,0c-0.672,0.672-0.672,1.722,0,2.393l1.764,1.765
		c1.554,1.553,3.612,2.394,5.794,2.394c2.184,0,4.244-0.841,5.797-2.394l4.283-4.283c1.555-1.555,2.395-3.611,2.395-5.795
		c0-2.185-0.84-4.242-2.395-5.797L28.43,2.394z"/>
</g>
</svg>
