<?xml version="1.0" encoding="utf-8"?>
<!-- Generator: Adobe Illustrator 16.0.0, SVG Export Plug-In . SVG Version: 6.00 Build 0)  -->
<!DOCTYPE svg PUBLIC "-//W3C//DTD SVG 1.1//EN" "http://www.w3.org/Graphics/SVG/1.1/DTD/svg11.dtd">
<svg version="1.1" id="Layer_1" xmlns="http://www.w3.org/2000/svg" xmlns:xlink="http://www.w3.org/1999/xlink" x="0px" y="0px"
	 width="25.288px" height="32px" viewBox="0 0 25.288 32" enable-background="new 0 0 25.288 32" xml:space="preserve">
<g>
	<path d="M12.664,18.299c-3.312,0-6.006-2.748-6.006-6.127c0-3.378,2.694-6.126,6.006-6.126c3.312,0,6.007,2.748,6.007,6.126
		C18.671,15.551,15.977,18.299,12.664,18.299z M12.664,8.223c-2.11,0-3.828,1.771-3.828,3.949c0,2.176,1.717,3.948,3.828,3.948
		s3.828-1.771,3.828-3.948C16.492,9.995,14.774,8.223,12.664,8.223z"/>
	<path d="M12.664,32c-0.283,0-0.571-0.126-0.789-0.347l-8.323-9.654c-1.336-1.467-2.305-3.013-2.871-4.585
		c-0.632-1.73-0.878-3.431-0.752-5.197C0.389,5.367,5.982,0,12.664,0c6.701,0,12.277,5.369,12.694,12.223
		c0.127,1.757-0.119,3.458-0.754,5.194c-0.592,1.645-1.562,3.192-2.883,4.599l-8.248,9.612C13.327,31.868,12.952,32,12.664,32z
		 M12.664,2.179c-6.168,0-10.212,5.179-10.557,10.187c-0.113,1.377,0.089,2.775,0.617,4.28c0.497,1.374,1.293,2.637,2.436,3.859
		l7.503,8.734l7.451-8.719c1.176-1.217,1.985-2.479,2.492-3.879c0.515-1.428,0.728-2.904,0.617-4.27
		C22.915,7.357,18.882,2.179,12.664,2.179z"/>
</g>
</svg>
